<mxfile host="app.diagrams.net" modified="2021-08-16T08:16:09.712Z" agent="5.0 (Windows NT 10.0; Win64; x64) AppleWebKit/537.36 (KHTML, like Gecko) Chrome/92.0.4515.107 Safari/537.36" etag="5v-RHyTjUru_hWBxG8ui" version="14.9.3" type="github">
  <diagram id="S4MhbxHBk9OpgyJwEbuB" name="Page-1">
    <mxGraphModel dx="1038" dy="530" grid="1" gridSize="10" guides="1" tooltips="1" connect="1" arrows="1" fold="1" page="1" pageScale="1" pageWidth="1200" pageHeight="1920" math="0" shadow="0">
      <root>
        <mxCell id="0" />
        <mxCell id="1" parent="0" />
        <mxCell id="WhltNvfl-e49DWXhVgn8-1" value="" style="group" vertex="1" connectable="0" parent="1">
          <mxGeometry x="90" y="110" width="424" height="253" as="geometry" />
        </mxCell>
        <mxCell id="WhltNvfl-e49DWXhVgn8-2" value="" style="ellipse;whiteSpace=wrap;html=1;aspect=fixed;fillColor=#d5e8d4;strokeColor=#82b366;" vertex="1" parent="WhltNvfl-e49DWXhVgn8-1">
          <mxGeometry x="192" width="40" height="40" as="geometry" />
        </mxCell>
        <mxCell id="WhltNvfl-e49DWXhVgn8-3" style="edgeStyle=none;rounded=0;jumpStyle=none;orthogonalLoop=1;jettySize=auto;html=1;exitX=0.5;exitY=0;exitDx=0;exitDy=0;entryX=1;entryY=1;entryDx=0;entryDy=0;endArrow=none;endFill=0;strokeColor=#99CCFF;strokeWidth=3;" edge="1" parent="WhltNvfl-e49DWXhVgn8-1" source="WhltNvfl-e49DWXhVgn8-4" target="WhltNvfl-e49DWXhVgn8-2">
          <mxGeometry relative="1" as="geometry" />
        </mxCell>
        <mxCell id="WhltNvfl-e49DWXhVgn8-4" value="" style="ellipse;whiteSpace=wrap;html=1;aspect=fixed;fillColor=#d5e8d4;strokeColor=#82b366;" vertex="1" parent="WhltNvfl-e49DWXhVgn8-1">
          <mxGeometry x="302" y="83" width="40" height="40" as="geometry" />
        </mxCell>
        <mxCell id="WhltNvfl-e49DWXhVgn8-5" style="edgeStyle=none;rounded=0;jumpStyle=none;orthogonalLoop=1;jettySize=auto;html=1;exitX=0.5;exitY=0;exitDx=0;exitDy=0;entryX=0;entryY=1;entryDx=0;entryDy=0;endArrow=none;endFill=0;strokeColor=#99CCFF;strokeWidth=3;" edge="1" parent="WhltNvfl-e49DWXhVgn8-1" source="WhltNvfl-e49DWXhVgn8-6" target="WhltNvfl-e49DWXhVgn8-2">
          <mxGeometry relative="1" as="geometry" />
        </mxCell>
        <mxCell id="WhltNvfl-e49DWXhVgn8-6" value="" style="ellipse;whiteSpace=wrap;html=1;aspect=fixed;fillColor=#d5e8d4;strokeColor=#82b366;" vertex="1" parent="WhltNvfl-e49DWXhVgn8-1">
          <mxGeometry x="82" y="83" width="40" height="40" as="geometry" />
        </mxCell>
        <mxCell id="WhltNvfl-e49DWXhVgn8-7" style="edgeStyle=none;rounded=0;jumpStyle=none;orthogonalLoop=1;jettySize=auto;html=1;exitX=0.5;exitY=0;exitDx=0;exitDy=0;entryX=0;entryY=1;entryDx=0;entryDy=0;endArrow=none;endFill=0;strokeColor=#99CCFF;strokeWidth=3;" edge="1" parent="WhltNvfl-e49DWXhVgn8-1" source="WhltNvfl-e49DWXhVgn8-8" target="WhltNvfl-e49DWXhVgn8-6">
          <mxGeometry relative="1" as="geometry" />
        </mxCell>
        <mxCell id="WhltNvfl-e49DWXhVgn8-8" value="" style="ellipse;whiteSpace=wrap;html=1;aspect=fixed;fillColor=#d5e8d4;strokeColor=#82b366;" vertex="1" parent="WhltNvfl-e49DWXhVgn8-1">
          <mxGeometry x="27" y="153" width="40" height="40" as="geometry" />
        </mxCell>
        <mxCell id="WhltNvfl-e49DWXhVgn8-9" style="rounded=0;orthogonalLoop=1;jettySize=auto;html=1;exitX=0.5;exitY=0;exitDx=0;exitDy=0;entryX=0;entryY=1;entryDx=0;entryDy=0;endArrow=none;endFill=0;jumpStyle=none;fillColor=#dae8fc;strokeWidth=3;strokeColor=#99CCFF;" edge="1" parent="WhltNvfl-e49DWXhVgn8-1" source="WhltNvfl-e49DWXhVgn8-21" target="WhltNvfl-e49DWXhVgn8-8">
          <mxGeometry y="153" as="geometry" />
        </mxCell>
        <mxCell id="WhltNvfl-e49DWXhVgn8-10" style="edgeStyle=none;rounded=0;jumpStyle=none;orthogonalLoop=1;jettySize=auto;html=1;exitX=0.5;exitY=0;exitDx=0;exitDy=0;entryX=1;entryY=1;entryDx=0;entryDy=0;endArrow=none;endFill=0;strokeColor=#99CCFF;strokeWidth=3;" edge="1" parent="WhltNvfl-e49DWXhVgn8-1" source="WhltNvfl-e49DWXhVgn8-11" target="WhltNvfl-e49DWXhVgn8-6">
          <mxGeometry relative="1" as="geometry" />
        </mxCell>
        <mxCell id="WhltNvfl-e49DWXhVgn8-11" value="" style="ellipse;whiteSpace=wrap;html=1;aspect=fixed;fillColor=#d5e8d4;strokeColor=#82b366;" vertex="1" parent="WhltNvfl-e49DWXhVgn8-1">
          <mxGeometry x="137" y="153" width="40" height="40" as="geometry" />
        </mxCell>
        <mxCell id="WhltNvfl-e49DWXhVgn8-12" style="edgeStyle=none;rounded=0;jumpStyle=none;orthogonalLoop=1;jettySize=auto;html=1;exitX=0.5;exitY=0;exitDx=0;exitDy=0;entryX=1;entryY=1;entryDx=0;entryDy=0;endArrow=none;endFill=0;strokeColor=#99CCFF;strokeWidth=3;" edge="1" parent="WhltNvfl-e49DWXhVgn8-1" source="WhltNvfl-e49DWXhVgn8-13" target="WhltNvfl-e49DWXhVgn8-4">
          <mxGeometry relative="1" as="geometry" />
        </mxCell>
        <mxCell id="WhltNvfl-e49DWXhVgn8-13" value="" style="ellipse;whiteSpace=wrap;html=1;aspect=fixed;fillColor=#d5e8d4;strokeColor=#82b366;" vertex="1" parent="WhltNvfl-e49DWXhVgn8-1">
          <mxGeometry x="357" y="153" width="40" height="40" as="geometry" />
        </mxCell>
        <mxCell id="WhltNvfl-e49DWXhVgn8-14" style="edgeStyle=none;rounded=0;jumpStyle=none;orthogonalLoop=1;jettySize=auto;html=1;exitX=0.5;exitY=0;exitDx=0;exitDy=0;entryX=0;entryY=1;entryDx=0;entryDy=0;endArrow=none;endFill=0;strokeColor=#99CCFF;strokeWidth=3;" edge="1" parent="WhltNvfl-e49DWXhVgn8-1" source="WhltNvfl-e49DWXhVgn8-15" target="WhltNvfl-e49DWXhVgn8-4">
          <mxGeometry relative="1" as="geometry" />
        </mxCell>
        <mxCell id="WhltNvfl-e49DWXhVgn8-15" value="" style="ellipse;whiteSpace=wrap;html=1;aspect=fixed;fillColor=#d5e8d4;strokeColor=#82b366;" vertex="1" parent="WhltNvfl-e49DWXhVgn8-1">
          <mxGeometry x="247" y="153" width="40" height="40" as="geometry" />
        </mxCell>
        <mxCell id="WhltNvfl-e49DWXhVgn8-16" value="" style="group" vertex="1" connectable="0" parent="WhltNvfl-e49DWXhVgn8-1">
          <mxGeometry x="220" y="213" width="94" height="40" as="geometry" />
        </mxCell>
        <mxCell id="WhltNvfl-e49DWXhVgn8-17" value="" style="ellipse;whiteSpace=wrap;html=1;aspect=fixed;fillColor=#d5e8d4;strokeColor=#82b366;" vertex="1" parent="WhltNvfl-e49DWXhVgn8-16">
          <mxGeometry x="54" width="40" height="40" as="geometry" />
        </mxCell>
        <mxCell id="WhltNvfl-e49DWXhVgn8-18" value="" style="ellipse;whiteSpace=wrap;html=1;aspect=fixed;fillColor=#d5e8d4;strokeColor=#82b366;" vertex="1" parent="WhltNvfl-e49DWXhVgn8-16">
          <mxGeometry width="40" height="40" as="geometry" />
        </mxCell>
        <mxCell id="WhltNvfl-e49DWXhVgn8-19" style="edgeStyle=none;rounded=0;jumpStyle=none;orthogonalLoop=1;jettySize=auto;html=1;exitX=0.5;exitY=0;exitDx=0;exitDy=0;entryX=1;entryY=1;entryDx=0;entryDy=0;endArrow=none;endFill=0;strokeColor=#99CCFF;strokeWidth=3;" edge="1" parent="WhltNvfl-e49DWXhVgn8-1" source="WhltNvfl-e49DWXhVgn8-20" target="WhltNvfl-e49DWXhVgn8-8">
          <mxGeometry relative="1" as="geometry" />
        </mxCell>
        <mxCell id="WhltNvfl-e49DWXhVgn8-20" value="" style="ellipse;whiteSpace=wrap;html=1;aspect=fixed;fillColor=#d5e8d4;strokeColor=#82b366;" vertex="1" parent="WhltNvfl-e49DWXhVgn8-1">
          <mxGeometry x="54" y="213" width="40" height="40" as="geometry" />
        </mxCell>
        <mxCell id="WhltNvfl-e49DWXhVgn8-21" value="" style="ellipse;whiteSpace=wrap;html=1;aspect=fixed;fillColor=#d5e8d4;strokeColor=#82b366;" vertex="1" parent="WhltNvfl-e49DWXhVgn8-1">
          <mxGeometry y="213" width="40" height="40" as="geometry" />
        </mxCell>
        <mxCell id="WhltNvfl-e49DWXhVgn8-22" style="edgeStyle=none;rounded=0;jumpStyle=none;orthogonalLoop=1;jettySize=auto;html=1;exitX=0.5;exitY=0;exitDx=0;exitDy=0;entryX=1;entryY=1;entryDx=0;entryDy=0;endArrow=none;endFill=0;strokeColor=#99CCFF;strokeWidth=3;" edge="1" parent="WhltNvfl-e49DWXhVgn8-1" source="WhltNvfl-e49DWXhVgn8-23" target="WhltNvfl-e49DWXhVgn8-11">
          <mxGeometry relative="1" as="geometry" />
        </mxCell>
        <mxCell id="WhltNvfl-e49DWXhVgn8-23" value="" style="ellipse;whiteSpace=wrap;html=1;aspect=fixed;fillColor=#d5e8d4;strokeColor=#82b366;" vertex="1" parent="WhltNvfl-e49DWXhVgn8-1">
          <mxGeometry x="164" y="213" width="40" height="40" as="geometry" />
        </mxCell>
        <mxCell id="WhltNvfl-e49DWXhVgn8-24" style="edgeStyle=none;rounded=0;jumpStyle=none;orthogonalLoop=1;jettySize=auto;html=1;exitX=0.5;exitY=0;exitDx=0;exitDy=0;entryX=0;entryY=1;entryDx=0;entryDy=0;endArrow=none;endFill=0;strokeColor=#99CCFF;strokeWidth=3;" edge="1" parent="WhltNvfl-e49DWXhVgn8-1" source="WhltNvfl-e49DWXhVgn8-25" target="WhltNvfl-e49DWXhVgn8-11">
          <mxGeometry relative="1" as="geometry" />
        </mxCell>
        <mxCell id="WhltNvfl-e49DWXhVgn8-25" value="" style="ellipse;whiteSpace=wrap;html=1;aspect=fixed;fillColor=#d5e8d4;strokeColor=#82b366;" vertex="1" parent="WhltNvfl-e49DWXhVgn8-1">
          <mxGeometry x="110" y="213" width="40" height="40" as="geometry" />
        </mxCell>
        <mxCell id="WhltNvfl-e49DWXhVgn8-26" style="edgeStyle=none;rounded=0;jumpStyle=none;orthogonalLoop=1;jettySize=auto;html=1;exitX=0.5;exitY=0;exitDx=0;exitDy=0;entryX=1;entryY=1;entryDx=0;entryDy=0;endArrow=none;endFill=0;strokeColor=#99CCFF;strokeWidth=3;" edge="1" parent="WhltNvfl-e49DWXhVgn8-1" source="WhltNvfl-e49DWXhVgn8-27" target="WhltNvfl-e49DWXhVgn8-13">
          <mxGeometry relative="1" as="geometry" />
        </mxCell>
        <mxCell id="WhltNvfl-e49DWXhVgn8-27" value="" style="ellipse;whiteSpace=wrap;html=1;aspect=fixed;fillColor=#d5e8d4;strokeColor=#82b366;" vertex="1" parent="WhltNvfl-e49DWXhVgn8-1">
          <mxGeometry x="384" y="213" width="40" height="40" as="geometry" />
        </mxCell>
        <mxCell id="WhltNvfl-e49DWXhVgn8-28" style="edgeStyle=none;rounded=0;jumpStyle=none;orthogonalLoop=1;jettySize=auto;html=1;exitX=0.5;exitY=0;exitDx=0;exitDy=0;entryX=0;entryY=1;entryDx=0;entryDy=0;endArrow=none;endFill=0;strokeColor=#99CCFF;strokeWidth=3;" edge="1" parent="WhltNvfl-e49DWXhVgn8-1" source="WhltNvfl-e49DWXhVgn8-29" target="WhltNvfl-e49DWXhVgn8-13">
          <mxGeometry relative="1" as="geometry" />
        </mxCell>
        <mxCell id="WhltNvfl-e49DWXhVgn8-29" value="" style="ellipse;whiteSpace=wrap;html=1;aspect=fixed;fillColor=#d5e8d4;strokeColor=#82b366;" vertex="1" parent="WhltNvfl-e49DWXhVgn8-1">
          <mxGeometry x="330" y="213" width="40" height="40" as="geometry" />
        </mxCell>
        <mxCell id="WhltNvfl-e49DWXhVgn8-30" style="edgeStyle=none;rounded=0;jumpStyle=none;orthogonalLoop=1;jettySize=auto;html=1;exitX=0.5;exitY=0;exitDx=0;exitDy=0;entryX=0;entryY=1;entryDx=0;entryDy=0;endArrow=none;endFill=0;strokeColor=#99CCFF;strokeWidth=3;" edge="1" parent="WhltNvfl-e49DWXhVgn8-1" source="WhltNvfl-e49DWXhVgn8-18" target="WhltNvfl-e49DWXhVgn8-15">
          <mxGeometry relative="1" as="geometry" />
        </mxCell>
        <mxCell id="WhltNvfl-e49DWXhVgn8-31" style="edgeStyle=none;rounded=0;jumpStyle=none;orthogonalLoop=1;jettySize=auto;html=1;exitX=0.5;exitY=0;exitDx=0;exitDy=0;entryX=1;entryY=1;entryDx=0;entryDy=0;endArrow=none;endFill=0;strokeColor=#99CCFF;strokeWidth=3;" edge="1" parent="WhltNvfl-e49DWXhVgn8-1" source="WhltNvfl-e49DWXhVgn8-17" target="WhltNvfl-e49DWXhVgn8-15">
          <mxGeometry relative="1" as="geometry" />
        </mxCell>
      </root>
    </mxGraphModel>
  </diagram>
</mxfile>
